<svg width="24" height="24" viewBox="0 0 24 24" fill="none" xmlns="http://www.w3.org/2000/svg">
<path d="M16.8647 3.10724C17.9069 3.29274 18.8667 3.79361 19.6147 4.54173L19.6062 4.5535C20.3317 5.27908 20.8262 6.20304 21.0277 7.20908C21.2291 8.21513 21.1285 9.25828 20.7383 10.2072C20.3482 11.1562 19.6861 11.9685 18.8353 12.542C17.985 13.1152 16.9841 13.4241 15.9587 13.43C15.9033 13.4299 15.8438 13.4226 15.7489 13.4096C15.7448 13.409 15.7405 13.4085 15.7361 13.4078C15.6523 13.3963 15.5336 13.38 15.4098 13.38H15.2315L15.0934 13.4928L5.65361 21.2067L2.99314 18.5462L10.707 9.10637L10.8389 8.94499L10.8171 8.73772C10.705 7.67139 10.9272 6.5966 11.453 5.66215C11.9787 4.7277 12.782 3.97983 13.7516 3.52208C14.7212 3.06434 15.8091 2.91937 16.8647 3.10724ZM5.38627 20.2135L5.70561 20.5329L6.05569 20.2476L13.9457 13.8176L14.5804 13.3003L13.8303 12.972C12.6779 12.4674 11.759 11.5453 11.2586 10.3911L10.9318 9.63754L10.4125 10.2738L3.97247 18.1638L3.68669 18.514L4.00627 18.8335L5.38627 20.2135ZM16.8969 12.8497C17.4497 12.7398 17.9752 12.5319 18.4498 12.2388V12.4119L19.3002 11.5767C19.7428 11.142 20.0943 10.6235 20.3342 10.0515C20.5742 9.47944 20.6978 8.86532 20.6978 8.24499C20.6978 7.62465 20.5742 7.01054 20.3342 6.4385C20.0946 5.86715 19.7436 5.3492 19.3018 4.91484C18.6447 4.25844 17.8078 3.81143 16.8969 3.63026C15.9852 3.44895 15.0402 3.54205 14.1814 3.8978C13.3226 4.25354 12.5886 4.85596 12.0722 5.62886C11.5558 6.40176 11.2801 7.31043 11.2801 8.23999C11.2801 9.16954 11.5558 10.0782 12.0722 10.8511C12.5886 11.624 13.3226 12.2264 14.1814 12.5822C15.0402 12.9379 15.9852 13.031 16.8969 12.8497Z" fill="#171719" stroke="#171719"/>
</svg>
