<svg width="16" height="16" viewBox="0 0 16 16" fill="none" xmlns="http://www.w3.org/2000/svg">
<path d="M2.3002 8.46667C1.0002 7.06667 1.0002 4.8 2.3002 3.4C2.96687 2.66667 3.8002 2.33334 4.66687 2.33334C5.33354 2.33334 6.03353 2.56667 6.6002 3C6.83353 3.2 7.03354 3.43334 7.23354 3.66667L8.03354 4.73334L8.83353 3.66667C9.03353 3.4 9.23352 3.16667 9.46686 3C10.0002 2.53334 10.6669 2.33334 11.3669 2.33334C12.2002 2.33334 13.0669 2.66667 13.7002 3.4C15.0002 4.8 15.0002 7.06667 13.7002 8.46667L8.46687 13.8C8.23353 14.0667 7.8002 14.0667 7.56687 13.8L2.3002 8.46667Z" stroke="#171719" stroke-width="2" stroke-miterlimit="10" stroke-linecap="round" stroke-linejoin="round"/>
</svg>
