<svg width="24" height="24" viewBox="0 0 24 24" fill="none" xmlns="http://www.w3.org/2000/svg">
<g fill="black" stroke="black">
<path d="M1.75024 12C1.7487 10.3128 2.16448 8.65145 2.96055 7.16387C3.67798 5.82323 4.68421 4.66126 5.90413 3.76062L5.62728 3.34367C4.34042 4.29125 3.27923 5.51523 2.52323 6.92797C1.68831 8.48821 1.25146 10.2304 1.25146 12C1.25146 13.7696 1.68831 15.5118 2.52323 17.0721C3.27923 18.4848 4.34042 19.7088 5.62728 20.6564L5.90413 20.2394C4.68421 19.3388 3.67798 18.1768 2.96055 16.8362C2.16448 15.3486 1.7487 13.6872 1.75024 12ZM1.75024 12C1.75024 11.9999 1.75024 11.9997 1.75024 11.9995L2.25024 12L1.75024 12.0005C1.75024 12.0003 1.75024 12.0002 1.75024 12ZM5.76024 21.36L6.03682 20.9435L5.35039 21.0734C5.48469 21.1718 5.62134 21.2674 5.76024 21.36Z" />
<path d="M21.0364 7.16555C20.3194 5.8252 19.3144 4.66296 18.0959 3.76114L18.3731 3.34367C19.66 4.29125 20.7212 5.51523 21.4772 6.92797C22.3121 8.48821 22.7489 10.2304 22.7489 12C22.7489 13.7696 22.3121 15.5118 21.4772 17.0721C20.7212 18.4848 19.66 19.7088 18.3731 20.6564L18.0959 20.2389C19.3144 19.3371 20.3194 18.1748 21.0364 16.8345C21.8319 15.3472 22.2481 13.6867 22.2481 12C22.2481 10.3134 21.8319 8.6528 21.0364 7.16555Z" />
<path d="M8.68179 16.1115L8.41282 16.4958C7.80314 16.0097 7.29732 15.4035 6.92781 14.7129C6.48122 13.8784 6.24756 12.9465 6.24756 12C6.24756 11.0535 6.48122 10.1216 6.92781 9.28703C7.29732 8.59652 7.80314 7.99032 8.41282 7.50419L8.72647 7.95225C8.17325 8.39532 7.7142 8.94689 7.37855 9.5747C6.9714 10.3362 6.75839 11.1864 6.75839 12.05C6.75839 12.9135 6.9714 13.7637 7.37855 14.5253C7.70512 15.1361 8.14851 15.6748 8.68179 16.1115Z" />
<path d="M17.0623 14.663C16.6948 15.3497 16.1924 15.9531 15.5872 16.4379L15.3091 16.0191C15.8465 15.5809 16.2931 15.0396 16.6215 14.4253C17.0287 13.6638 17.2417 12.8135 17.2417 11.95C17.2417 11.0865 17.0287 10.2362 16.6215 9.47471C16.295 8.86388 15.8516 8.32522 15.3183 7.88844L15.6061 7.47733C16.2029 7.9595 16.6986 8.55744 17.0623 9.23705C17.5089 10.0716 17.7425 11.0035 17.7425 11.95C17.7425 12.8965 17.5089 13.8284 17.0623 14.663Z" />
<path d="M13 12C13 12.5523 12.5523 13 12 13C11.4477 13 11 12.5523 11 12C11 11.4477 11.4477 11 12 11C12.5523 11 13 11.4477 13 12Z" />
</g>
</svg>
