<svg width="24" height="24" viewBox="0 0 24 24" fill="none" xmlns="http://www.w3.org/2000/svg">
<path d="M6.44498 15.3962L7.24995 16.0158V15V3.5H7.74995V17.9986C7.74627 18.6402 7.55277 19.2664 7.19383 19.7982C6.83464 20.3304 6.32587 20.7442 5.73171 20.9876C5.13756 21.2309 4.48465 21.2928 3.85535 21.1654C3.22606 21.0381 2.64859 20.7272 2.1958 20.272C1.74301 19.8168 1.4352 19.2377 1.31119 18.6077C1.18719 17.9777 1.25255 17.3252 1.49904 16.7323C1.74553 16.1395 2.16209 15.6329 2.69617 15.2765C3.22999 14.9204 3.85731 14.7302 4.49905 14.73C5.2032 14.7326 5.88696 14.9667 6.44498 15.3962ZM2.97213 20.2865C3.42436 20.5887 3.95605 20.75 4.49995 20.75C5.22929 20.75 5.92877 20.4603 6.44449 19.9445C6.96022 19.4288 7.24995 18.7293 7.24995 18C7.24995 17.4561 7.08866 16.9244 6.78649 16.4722C6.48432 16.0199 6.05482 15.6675 5.55233 15.4593C5.04983 15.2512 4.4969 15.1967 3.96345 15.3028C3.43 15.4089 2.94 15.6709 2.5554 16.0555C2.17081 16.4401 1.9089 16.9301 1.80279 17.4635C1.69668 17.9969 1.75114 18.5499 1.95928 19.0524C2.16742 19.5549 2.51989 19.9844 2.97213 20.2865Z" fill="#000000" stroke="#000000"/>
<path d="M12.5 15.3H20.5V15.8H12.5V15.3Z" fill="#000000" stroke="#000000"/>
<path d="M12.5 7.29999H22.5V7.79999H12.5V7.29999Z" fill="#000000" stroke="#000000"/>
<path d="M12.5 11.3H21.5V11.8H12.5V11.3Z" fill="#000000" stroke="#000000"/>
</svg>
