<svg width="24" height="24" viewBox="0 0 24 24" fill="none" xmlns="http://www.w3.org/2000/svg">
<path d="M20.8002 2.23823V16.9967C20.7912 17.6531 20.5635 18.2877 20.1531 18.8002C19.7422 19.3134 19.1715 19.6746 18.5317 19.8265C17.892 19.9783 17.2198 19.9121 16.622 19.6383C16.0242 19.3645 15.535 18.8988 15.2321 18.3152C14.9292 17.7316 14.83 17.0636 14.9502 16.4171C15.0703 15.7707 15.403 15.1829 15.8954 14.7471C16.3878 14.3114 17.0116 14.0526 17.6679 14.0119C18.3241 13.9712 18.9752 14.1509 19.5176 14.5225L20.3002 15.0586V14.11V3.48999V2.86109L19.6875 3.00285L9.48749 5.36285L9.1002 5.45246V5.84999L9.10019 18.75L9.1002 18.7509C9.10135 19.4102 8.88158 20.051 8.47597 20.5708C8.07035 21.0906 7.50228 21.4596 6.86242 21.6188C6.22257 21.778 5.54784 21.7182 4.94592 21.449C4.34401 21.1799 3.84963 20.7168 3.54169 20.1338C3.23375 19.5507 3.13001 18.8814 3.24703 18.2325C3.36406 17.5836 3.6951 16.9926 4.1873 16.5539C4.67951 16.1151 5.30451 15.854 5.96253 15.812C6.62055 15.7701 7.27366 15.9498 7.81759 16.3225L8.6002 16.8587V15.91V5.04792L20.8002 2.23823ZM5.88369 21.1406L5.94822 21.2051L6.16253 21.1998C6.49087 21.1917 6.81439 21.119 7.11461 20.9858C7.41483 20.8526 7.68587 20.6616 7.91223 20.4236C8.13859 20.1857 8.31585 19.9054 8.43386 19.5989C8.55112 19.2944 8.60762 18.9699 8.60019 18.6437C8.59894 18.1514 8.4524 17.6704 8.17887 17.2611C7.90417 16.8499 7.51372 16.5295 7.0569 16.3403C6.60009 16.1511 6.09742 16.1016 5.61247 16.198C5.12752 16.2945 4.68206 16.5326 4.33243 16.8822C3.9828 17.2318 3.74469 17.6773 3.64823 18.1623C3.55177 18.6472 3.60128 19.1499 3.7905 19.6067C3.97972 20.0635 4.30015 20.454 4.71127 20.7287C5.06214 20.9631 5.46561 21.1043 5.88369 21.1406ZM17.5784 19.3353L17.648 19.4049L19.8002 17L20.2995 17.0254C20.2996 17.0252 20.2996 17.025 20.2996 17.0248C20.3242 16.5386 20.2035 16.056 19.9527 15.6387C19.7018 15.2212 19.3322 14.888 18.891 14.6816C18.4499 14.4752 17.9572 14.4049 17.4759 14.4798C16.9947 14.5548 16.5466 14.7714 16.1891 15.1021C15.8315 15.4329 15.5807 15.8627 15.4685 16.3367C15.3564 16.8107 15.3881 17.3073 15.5596 17.7632C15.731 18.2191 16.0345 18.6135 16.4312 18.8961C16.771 19.1382 17.166 19.2888 17.5784 19.3353Z" fill="#171719" stroke="#171719"/>
</svg>
